<svg xmlns="http://www.w3.org/2000/svg" xmlns:xlink="http://www.w3.org/1999/xlink" contentStyleType="text/css" height="474px" preserveAspectRatio="none" style="width:1724px;height:474px;background:#FFFFFF" version="1.1" viewBox="0 0 1724 474" width="1724px" zoomAndPan="magnify"><style type="text/css">.st-efrMKwI4-0{fill:none;}&#xa;.st-efrMKwI4-1{stroke:#181818;}&#xa;.st-efrMKwI4-2{fill:#000000;}&#xa;.st-efrMKwI4-3{fill:#F1F1F1;}&#xa;.st-efrMKwI4-4{fill:#FEFFDD;}&#xa;.st-efrMKwI4-5{fill:#181818;}</style><defs/><g><!--cluster UI Layer (React Components)--><g id="cluster_UI Layer (React Components)"><rect height="218.6" rx="2.5" ry="2.5" style="stroke-width:1.0" width="448" x="142" y="7" class="st-efrMKwI4-0 st-efrMKwI4-1"/><text font-family="sans-serif" font-size="14" font-weight="bold" lengthAdjust="spacing" textLength="230" x="251" y="21.9951" class="st-efrMKwI4-2">UI Layer (React Components)</text></g><!--cluster Business Logic Layer (Custom Hooks/Services)--><g id="cluster_Business Logic Layer (Custom Hooks/Services)"><rect height="97.29" rx="2.5" ry="2.5" style="stroke-width:1.0" width="557" x="7" y="249.6" class="st-efrMKwI4-0 st-efrMKwI4-1"/><text font-family="sans-serif" font-size="14" font-weight="bold" lengthAdjust="spacing" textLength="371" x="100" y="264.5951" class="st-efrMKwI4-2">Business Logic Layer (Custom Hooks/Services)</text></g><!--cluster Domain Layer (Entities & DTOs)--><g id="cluster_Domain Layer (Entities &amp; DTOs)"><rect height="97.3" rx="2.5" ry="2.5" style="stroke-width:1.0" width="560" x="202" y="370.89" class="st-efrMKwI4-0 st-efrMKwI4-1"/><text font-family="sans-serif" font-size="14" font-weight="bold" lengthAdjust="spacing" textLength="247" x="358.5" y="385.8851" class="st-efrMKwI4-2">Domain Layer (Entities &amp; DTOs)</text></g><!--cluster API Layer (Fetch Functions)--><g id="cluster_API Layer (Fetch Functions)"><rect height="97.29" rx="2.5" ry="2.5" style="stroke-width:1.0" width="669" x="588" y="249.6" class="st-efrMKwI4-0 st-efrMKwI4-1"/><text font-family="sans-serif" font-size="14" font-weight="bold" lengthAdjust="spacing" textLength="217" x="814" y="264.5951" class="st-efrMKwI4-2">API Layer (Fetch Functions)</text></g><!--cluster Infrastructure Layer (Shared Services)--><g id="cluster_Infrastructure Layer (Shared Services)"><rect height="97.3" rx="2.5" ry="2.5" style="stroke-width:1.0" width="361" x="1208" y="128.3" class="st-efrMKwI4-0 st-efrMKwI4-1"/><text font-family="sans-serif" font-size="14" font-weight="bold" lengthAdjust="spacing" textLength="305" x="1236" y="143.2951" class="st-efrMKwI4-2">Infrastructure Layer (Shared Services)</text></g><!--cluster External APIs/Services--><g id="cluster_External APIs/Services"><rect height="97.3" rx="2.5" ry="2.5" style="stroke-width:1.0" width="622" x="1096" y="7" class="st-efrMKwI4-0 st-efrMKwI4-1"/><text font-family="sans-serif" font-size="14" font-weight="bold" lengthAdjust="spacing" textLength="176" x="1319" y="21.9951" class="st-efrMKwI4-2">External APIs/Services</text></g><!--cluster React Query--><g id="cluster_React Query"><rect height="97.3" rx="2.5" ry="2.5" style="stroke-width:1.0" width="570" x="614" y="128.3" class="st-efrMKwI4-0 st-efrMKwI4-1"/><text font-family="sans-serif" font-size="14" font-weight="bold" lengthAdjust="spacing" textLength="97" x="850.5" y="143.2951" class="st-efrMKwI4-2">React Query</text></g><!--entity UserProfile Component--><g id="elem_UserProfile Component"><rect height="46.2969" rx="2.5" ry="2.5" style="stroke-width:0.5" width="200" x="158" y="42" class="st-efrMKwI4-3 st-efrMKwI4-1"/><rect height="10" style="stroke-width:0.5" width="15" x="338" y="47" class="st-efrMKwI4-3 st-efrMKwI4-1"/><rect height="2" style="stroke-width:0.5" width="4" x="336" y="49" class="st-efrMKwI4-3 st-efrMKwI4-1"/><rect height="2" style="stroke-width:0.5" width="4" x="336" y="53" class="st-efrMKwI4-3 st-efrMKwI4-1"/><text font-family="sans-serif" font-size="14" lengthAdjust="spacing" textLength="160" x="173" y="74.9951" class="st-efrMKwI4-2">UserProfile Component</text></g><!--entity useUser Hook--><g id="elem_useUser Hook"><rect height="46.2969" rx="2.5" ry="2.5" style="stroke-width:0.5" width="138" x="189" y="163.3" class="st-efrMKwI4-3 st-efrMKwI4-1"/><rect height="10" style="stroke-width:0.5" width="15" x="307" y="168.3" class="st-efrMKwI4-3 st-efrMKwI4-1"/><rect height="2" style="stroke-width:0.5" width="4" x="305" y="170.3" class="st-efrMKwI4-3 st-efrMKwI4-1"/><rect height="2" style="stroke-width:0.5" width="4" x="305" y="174.3" class="st-efrMKwI4-3 st-efrMKwI4-1"/><text font-family="sans-serif" font-size="14" lengthAdjust="spacing" textLength="98" x="204" y="196.2951" class="st-efrMKwI4-2">useUser Hook</text></g><!--entity usePosts Hook--><g id="elem_usePosts Hook"><rect height="46.2969" rx="2.5" ry="2.5" style="stroke-width:0.5" width="145" x="398.5" y="163.3" class="st-efrMKwI4-3 st-efrMKwI4-1"/><rect height="10" style="stroke-width:0.5" width="15" x="523.5" y="168.3" class="st-efrMKwI4-3 st-efrMKwI4-1"/><rect height="2" style="stroke-width:0.5" width="4" x="521.5" y="170.3" class="st-efrMKwI4-3 st-efrMKwI4-1"/><rect height="2" style="stroke-width:0.5" width="4" x="521.5" y="174.3" class="st-efrMKwI4-3 st-efrMKwI4-1"/><text font-family="sans-serif" font-size="14" lengthAdjust="spacing" textLength="105" x="413.5" y="196.2951" class="st-efrMKwI4-2">usePosts Hook</text></g><g id="elem_GMN8"><path d="M408,45.02 L408,55.19 L358.17,59.19 L408,63.19 L408,85.2856 A0,0 0 0 0 408,85.2856 L574,85.2856 A0,0 0 0 0 574,85.2856 L574,55.02 L564,45.02 L408,45.02 A0,0 0 0 0 408,45.02 " style="stroke-width:0.5" class="st-efrMKwI4-4 st-efrMKwI4-1"/><path d="M564,45.02 L564,55.02 L574,55.02 L564,45.02 " style="stroke-width:0.5" class="st-efrMKwI4-4 st-efrMKwI4-1"/><text font-family="sans-serif" font-size="13" lengthAdjust="spacing" textLength="145" x="414" y="62.0869" class="st-efrMKwI4-2">Handles rendering and</text><text font-family="sans-serif" font-size="13" lengthAdjust="spacing" textLength="107" x="414" y="77.2197" class="st-efrMKwI4-2">user interactions</text></g><!--entity User Entity--><g id="elem_User Entity"><rect height="46.2969" rx="2.5" ry="2.5" style="stroke-width:0.5" width="114" x="272" y="284.6" class="st-efrMKwI4-3 st-efrMKwI4-1"/><rect height="10" style="stroke-width:0.5" width="15" x="366" y="289.6" class="st-efrMKwI4-3 st-efrMKwI4-1"/><rect height="2" style="stroke-width:0.5" width="4" x="364" y="291.6" class="st-efrMKwI4-3 st-efrMKwI4-1"/><rect height="2" style="stroke-width:0.5" width="4" x="364" y="295.6" class="st-efrMKwI4-3 st-efrMKwI4-1"/><text font-family="sans-serif" font-size="14" lengthAdjust="spacing" textLength="74" x="287" y="317.5951" class="st-efrMKwI4-2">User Entity</text></g><!--entity Post Entity--><g id="elem_Post Entity"><rect height="46.2969" rx="2.5" ry="2.5" style="stroke-width:0.5" width="113" x="435.5" y="284.6" class="st-efrMKwI4-3 st-efrMKwI4-1"/><rect height="10" style="stroke-width:0.5" width="15" x="528.5" y="289.6" class="st-efrMKwI4-3 st-efrMKwI4-1"/><rect height="2" style="stroke-width:0.5" width="4" x="526.5" y="291.6" class="st-efrMKwI4-3 st-efrMKwI4-1"/><rect height="2" style="stroke-width:0.5" width="4" x="526.5" y="295.6" class="st-efrMKwI4-3 st-efrMKwI4-1"/><text font-family="sans-serif" font-size="14" lengthAdjust="spacing" textLength="73" x="450.5" y="317.5951" class="st-efrMKwI4-2">Post Entity</text></g><g id="elem_GMN16"><path d="M23.5,287.61 L23.5,327.8756 A0,0 0 0 0 23.5,327.8756 L222.5,327.8756 A0,0 0 0 0 222.5,327.8756 L222.5,297.61 L212.5,287.61 L209.75,287.61 L205.75,209.84 L201.75,287.61 L23.5,287.61 A0,0 0 0 0 23.5,287.61 " style="stroke-width:0.5" class="st-efrMKwI4-4 st-efrMKwI4-1"/><path d="M212.5,287.61 L212.5,297.61 L222.5,297.61 L212.5,287.61 " style="stroke-width:0.5" class="st-efrMKwI4-4 st-efrMKwI4-1"/><text font-family="sans-serif" font-size="13" lengthAdjust="spacing" textLength="178" x="29.5" y="304.6769" class="st-efrMKwI4-2">Encapsulates business logic</text><text font-family="sans-serif" font-size="13" lengthAdjust="spacing" textLength="112" x="29.5" y="319.8097" class="st-efrMKwI4-2">and data fetching</text></g><!--entity UserDTO--><g id="elem_UserDTO"><rect height="46.2969" rx="2.5" ry="2.5" style="stroke-width:0.5" width="103" x="490.5" y="405.89" class="st-efrMKwI4-3 st-efrMKwI4-1"/><rect height="10" style="stroke-width:0.5" width="15" x="573.5" y="410.89" class="st-efrMKwI4-3 st-efrMKwI4-1"/><rect height="2" style="stroke-width:0.5" width="4" x="571.5" y="412.89" class="st-efrMKwI4-3 st-efrMKwI4-1"/><rect height="2" style="stroke-width:0.5" width="4" x="571.5" y="416.89" class="st-efrMKwI4-3 st-efrMKwI4-1"/><text font-family="sans-serif" font-size="14" lengthAdjust="spacing" textLength="63" x="505.5" y="438.8851" class="st-efrMKwI4-2">UserDTO</text></g><!--entity PostDTO--><g id="elem_PostDTO"><rect height="46.2969" rx="2.5" ry="2.5" style="stroke-width:0.5" width="102" x="644" y="405.89" class="st-efrMKwI4-3 st-efrMKwI4-1"/><rect height="10" style="stroke-width:0.5" width="15" x="726" y="410.89" class="st-efrMKwI4-3 st-efrMKwI4-1"/><rect height="2" style="stroke-width:0.5" width="4" x="724" y="412.89" class="st-efrMKwI4-3 st-efrMKwI4-1"/><rect height="2" style="stroke-width:0.5" width="4" x="724" y="416.89" class="st-efrMKwI4-3 st-efrMKwI4-1"/><text font-family="sans-serif" font-size="14" lengthAdjust="spacing" textLength="62" x="659" y="438.8851" class="st-efrMKwI4-2">PostDTO</text></g><g id="elem_GMN24"><path d="M217.5,408.91 L217.5,449.1756 A0,0 0 0 0 217.5,449.1756 L440.5,449.1756 A0,0 0 0 0 440.5,449.1756 L440.5,418.91 L430.5,408.91 L352,408.91 L348,331.13 L344,408.91 L217.5,408.91 A0,0 0 0 0 217.5,408.91 " style="stroke-width:0.5" class="st-efrMKwI4-4 st-efrMKwI4-1"/><path d="M430.5,408.91 L430.5,418.91 L440.5,418.91 L430.5,408.91 " style="stroke-width:0.5" class="st-efrMKwI4-4 st-efrMKwI4-1"/><text font-family="sans-serif" font-size="13" lengthAdjust="spacing" textLength="170" x="223.5" y="425.9769" class="st-efrMKwI4-2">Encapsulates domain logic</text><text font-family="sans-serif" font-size="13" lengthAdjust="spacing" textLength="202" x="223.5" y="441.1097" class="st-efrMKwI4-2">(e.g., isAdmin(), getFullName())</text></g><!--entity getUser Function--><g id="elem_getUser Function"><rect height="46.2969" rx="2.5" ry="2.5" style="stroke-width:0.5" width="159" x="603.5" y="284.6" class="st-efrMKwI4-3 st-efrMKwI4-1"/><rect height="10" style="stroke-width:0.5" width="15" x="742.5" y="289.6" class="st-efrMKwI4-3 st-efrMKwI4-1"/><rect height="2" style="stroke-width:0.5" width="4" x="740.5" y="291.6" class="st-efrMKwI4-3 st-efrMKwI4-1"/><rect height="2" style="stroke-width:0.5" width="4" x="740.5" y="295.6" class="st-efrMKwI4-3 st-efrMKwI4-1"/><text font-family="sans-serif" font-size="14" lengthAdjust="spacing" textLength="119" x="618.5" y="317.5951" class="st-efrMKwI4-2">getUser Function</text></g><!--entity createPost Function--><g id="elem_createPost Function"><rect height="46.2969" rx="2.5" ry="2.5" style="stroke-width:0.5" width="179" x="1062.5" y="284.6" class="st-efrMKwI4-3 st-efrMKwI4-1"/><rect height="10" style="stroke-width:0.5" width="15" x="1221.5" y="289.6" class="st-efrMKwI4-3 st-efrMKwI4-1"/><rect height="2" style="stroke-width:0.5" width="4" x="1219.5" y="291.6" class="st-efrMKwI4-3 st-efrMKwI4-1"/><rect height="2" style="stroke-width:0.5" width="4" x="1219.5" y="295.6" class="st-efrMKwI4-3 st-efrMKwI4-1"/><text font-family="sans-serif" font-size="14" lengthAdjust="spacing" textLength="139" x="1077.5" y="317.5951" class="st-efrMKwI4-2">createPost Function</text></g><g id="elem_GMN32"><path d="M812,287.61 L812,304.19 L762.77,308.19 L812,312.19 L812,327.8756 A0,0 0 0 0 812,327.8756 L1012,327.8756 A0,0 0 0 0 1012,327.8756 L1012,297.61 L1002,287.61 L812,287.61 A0,0 0 0 0 812,287.61 " style="stroke-width:0.5" class="st-efrMKwI4-4 st-efrMKwI4-1"/><path d="M1002,287.61 L1002,297.61 L1012,297.61 L1002,287.61 " style="stroke-width:0.5" class="st-efrMKwI4-4 st-efrMKwI4-1"/><text font-family="sans-serif" font-size="13" lengthAdjust="spacing" textLength="179" x="818" y="304.6769" class="st-efrMKwI4-2">Handles API communication</text><text font-family="sans-serif" font-size="13" lengthAdjust="spacing" textLength="163" x="818" y="319.8097" class="st-efrMKwI4-2">and data transformations</text></g><!--entity ApiClient--><g id="elem_ApiClient"><rect height="46.2969" rx="2.5" ry="2.5" style="stroke-width:0.5" width="100" x="1224" y="163.3" class="st-efrMKwI4-3 st-efrMKwI4-1"/><rect height="10" style="stroke-width:0.5" width="15" x="1304" y="168.3" class="st-efrMKwI4-3 st-efrMKwI4-1"/><rect height="2" style="stroke-width:0.5" width="4" x="1302" y="170.3" class="st-efrMKwI4-3 st-efrMKwI4-1"/><rect height="2" style="stroke-width:0.5" width="4" x="1302" y="174.3" class="st-efrMKwI4-3 st-efrMKwI4-1"/><text font-family="sans-serif" font-size="14" lengthAdjust="spacing" textLength="60" x="1239" y="196.2951" class="st-efrMKwI4-2">ApiClient</text></g><g id="elem_GMN39"><path d="M1374.5,166.32 L1374.5,183.19 L1324.42,187.19 L1374.5,191.19 L1374.5,206.5856 A0,0 0 0 0 1374.5,206.5856 L1553.5,206.5856 A0,0 0 0 0 1553.5,206.5856 L1553.5,176.32 L1543.5,166.32 L1374.5,166.32 A0,0 0 0 0 1374.5,166.32 " style="stroke-width:0.5" class="st-efrMKwI4-4 st-efrMKwI4-1"/><path d="M1543.5,166.32 L1543.5,176.32 L1553.5,176.32 L1543.5,166.32 " style="stroke-width:0.5" class="st-efrMKwI4-4 st-efrMKwI4-1"/><text font-family="sans-serif" font-size="13" lengthAdjust="spacing" textLength="158" x="1380.5" y="183.3869" class="st-efrMKwI4-2">Provides shared services</text><text font-family="sans-serif" font-size="13" lengthAdjust="spacing" textLength="134" x="1380.5" y="198.5197" class="st-efrMKwI4-2">(e.g., HTTP requests)</text></g><!--entity Backend API--><g id="elem_Backend API"><rect height="46.2969" rx="2.5" ry="2.5" style="stroke-width:0.5" width="126" x="1302" y="42" class="st-efrMKwI4-3 st-efrMKwI4-1"/><rect height="10" style="stroke-width:0.5" width="15" x="1408" y="47" class="st-efrMKwI4-3 st-efrMKwI4-1"/><rect height="2" style="stroke-width:0.5" width="4" x="1406" y="49" class="st-efrMKwI4-3 st-efrMKwI4-1"/><rect height="2" style="stroke-width:0.5" width="4" x="1406" y="53" class="st-efrMKwI4-3 st-efrMKwI4-1"/><text font-family="sans-serif" font-size="14" lengthAdjust="spacing" textLength="86" x="1317" y="74.9951" class="st-efrMKwI4-2">Backend API</text></g><!--entity Third-party API--><g id="elem_Third-party API"><rect height="46.2969" rx="2.5" ry="2.5" style="stroke-width:0.5" width="139" x="1112.5" y="42" class="st-efrMKwI4-3 st-efrMKwI4-1"/><rect height="10" style="stroke-width:0.5" width="15" x="1231.5" y="47" class="st-efrMKwI4-3 st-efrMKwI4-1"/><rect height="2" style="stroke-width:0.5" width="4" x="1229.5" y="49" class="st-efrMKwI4-3 st-efrMKwI4-1"/><rect height="2" style="stroke-width:0.5" width="4" x="1229.5" y="53" class="st-efrMKwI4-3 st-efrMKwI4-1"/><text font-family="sans-serif" font-size="14" lengthAdjust="spacing" textLength="99" x="1127.5" y="74.9951" class="st-efrMKwI4-2">Third-party API</text></g><g id="elem_GMN47"><path d="M1478,52.58 L1478,61.19 L1428.27,65.19 L1478,69.19 L1478,77.7128 A0,0 0 0 0 1478,77.7128 L1702,77.7128 A0,0 0 0 0 1702,77.7128 L1702,62.58 L1692,52.58 L1478,52.58 A0,0 0 0 0 1478,52.58 " style="stroke-width:0.5" class="st-efrMKwI4-4 st-efrMKwI4-1"/><path d="M1692,52.58 L1692,62.58 L1702,62.58 L1692,52.58 " style="stroke-width:0.5" class="st-efrMKwI4-4 st-efrMKwI4-1"/><text font-family="sans-serif" font-size="13" lengthAdjust="spacing" textLength="203" x="1484" y="69.6469" class="st-efrMKwI4-2">Source of data and functionality</text></g><!--entity useQuery--><g id="elem_useQuery"><rect height="46.2969" rx="2.5" ry="2.5" style="stroke-width:0.5" width="107" x="629.5" y="163.3" class="st-efrMKwI4-3 st-efrMKwI4-1"/><rect height="10" style="stroke-width:0.5" width="15" x="716.5" y="168.3" class="st-efrMKwI4-3 st-efrMKwI4-1"/><rect height="2" style="stroke-width:0.5" width="4" x="714.5" y="170.3" class="st-efrMKwI4-3 st-efrMKwI4-1"/><rect height="2" style="stroke-width:0.5" width="4" x="714.5" y="174.3" class="st-efrMKwI4-3 st-efrMKwI4-1"/><text font-family="sans-serif" font-size="14" lengthAdjust="spacing" textLength="67" x="644.5" y="196.2951" class="st-efrMKwI4-2">useQuery</text></g><!--entity useMutation--><g id="elem_useMutation"><rect height="46.2969" rx="2.5" ry="2.5" style="stroke-width:0.5" width="126" x="1042" y="163.3" class="st-efrMKwI4-3 st-efrMKwI4-1"/><rect height="10" style="stroke-width:0.5" width="15" x="1148" y="168.3" class="st-efrMKwI4-3 st-efrMKwI4-1"/><rect height="2" style="stroke-width:0.5" width="4" x="1146" y="170.3" class="st-efrMKwI4-3 st-efrMKwI4-1"/><rect height="2" style="stroke-width:0.5" width="4" x="1146" y="174.3" class="st-efrMKwI4-3 st-efrMKwI4-1"/><text font-family="sans-serif" font-size="14" lengthAdjust="spacing" textLength="86" x="1057" y="196.2951" class="st-efrMKwI4-2">useMutation</text></g><g id="elem_GMN55"><path d="M786,166.32 L786,183.19 L736.85,187.19 L786,191.19 L786,206.5856 A0,0 0 0 0 786,206.5856 L992,206.5856 A0,0 0 0 0 992,206.5856 L992,176.32 L982,166.32 L786,166.32 A0,0 0 0 0 786,166.32 " style="stroke-width:0.5" class="st-efrMKwI4-4 st-efrMKwI4-1"/><path d="M982,166.32 L982,176.32 L992,176.32 L982,166.32 " style="stroke-width:0.5" class="st-efrMKwI4-4 st-efrMKwI4-1"/><text font-family="sans-serif" font-size="13" lengthAdjust="spacing" textLength="143" x="792" y="183.3869" class="st-efrMKwI4-2">Manages server state,</text><text font-family="sans-serif" font-size="13" lengthAdjust="spacing" textLength="185" x="792" y="198.5197" class="st-efrMKwI4-2">caching, and synchronization</text></g><!--link UserProfile Component to useUser Hook--><g id="link_UserProfile Component_useUser Hook"><path d="M258,88.54 C258,110.02 258,135.68 258,157.13 " id="UserProfile Component-to-useUser Hook" style="stroke-width:1.0" class="st-efrMKwI4-0 st-efrMKwI4-1"/><polygon points="258,163.13,262,154.13,258,158.13,254,154.13,258,163.13" style="stroke-width:1.0" class="st-efrMKwI4-5 st-efrMKwI4-1"/><text font-family="sans-serif" font-size="13" lengthAdjust="spacing" textLength="32" x="225" y="121.9069" class="st-efrMKwI4-2">Uses</text></g><!--link UserProfile Component to usePosts Hook--><g id="link_UserProfile Component_usePosts Hook"><path d="M358.49,72.19 C383.46,72.19 403.25,72.19 403.25,72.19 C403.25,72.19 403.25,123.62 403.25,157.05 " id="UserProfile Component-to-usePosts Hook" style="stroke-width:1.0" class="st-efrMKwI4-0 st-efrMKwI4-1"/><polygon points="403.25,163.05,407.25,154.05,403.25,158.05,399.25,154.05,403.25,163.05" style="stroke-width:1.0" class="st-efrMKwI4-5 st-efrMKwI4-1"/><text font-family="sans-serif" font-size="13" lengthAdjust="spacing" textLength="32" x="370.25" y="91.3069" class="st-efrMKwI4-2">Uses</text></g><!--link useUser Hook to User Entity--><g id="link_useUser Hook_User Entity"><path d="M299.5,209.84 C299.5,231.31 299.5,256.97 299.5,278.43 " id="useUser Hook-to-User Entity" style="stroke-width:1.0" class="st-efrMKwI4-0 st-efrMKwI4-1"/><polygon points="299.5,284.43,303.5,275.43,299.5,279.43,295.5,275.43,299.5,284.43" style="stroke-width:1.0" class="st-efrMKwI4-5 st-efrMKwI4-1"/><text font-family="sans-serif" font-size="13" lengthAdjust="spacing" textLength="32" x="266.5" y="243.1969" class="st-efrMKwI4-2">Uses</text></g><!--link usePosts Hook to Post Entity--><g id="link_usePosts Hook_Post Entity"><path d="M489.5,209.84 C489.5,231.31 489.5,256.97 489.5,278.43 " id="usePosts Hook-to-Post Entity" style="stroke-width:1.0" class="st-efrMKwI4-0 st-efrMKwI4-1"/><polygon points="489.5,284.43,493.5,275.43,489.5,279.43,485.5,275.43,489.5,284.43" style="stroke-width:1.0" class="st-efrMKwI4-5 st-efrMKwI4-1"/><text font-family="sans-serif" font-size="13" lengthAdjust="spacing" textLength="32" x="456.5" y="243.1969" class="st-efrMKwI4-2">Uses</text></g><!--link User Entity to UserDTO--><g id="link_User Entity_UserDTO"><path d="M310,331.33 C310,348.65 310,369.19 310,369.19 C310,369.19 519.5,369.19 519.5,369.19 C519.5,369.19 519.5,382.92 519.5,399.73 " id="User Entity-to-UserDTO" style="stroke-width:1.0" class="st-efrMKwI4-0 st-efrMKwI4-1"/><polygon points="519.5,405.73,523.5,396.73,519.5,400.73,515.5,396.73,519.5,405.73" style="stroke-width:1.0" class="st-efrMKwI4-5 st-efrMKwI4-1"/><text font-family="sans-serif" font-size="13" lengthAdjust="spacing" textLength="51" x="362.09" y="365.2569" class="st-efrMKwI4-2">Maps to</text></g><!--link Post Entity to PostDTO--><g id="link_Post Entity_PostDTO"><path d="M548.99,300.19 C574.31,300.19 598.5,300.19 598.5,300.19 C598.5,300.19 598.5,429.19 598.5,429.19 C598.5,429.19 614.6,429.19 637.64,429.19 " id="Post Entity-to-PostDTO" style="stroke-width:1.0" class="st-efrMKwI4-0 st-efrMKwI4-1"/><polygon points="643.64,429.19,634.64,425.19,638.64,429.19,634.64,433.19,643.64,429.19" style="stroke-width:1.0" class="st-efrMKwI4-5 st-efrMKwI4-1"/><text font-family="sans-serif" font-size="13" lengthAdjust="spacing" textLength="51" x="599.5" y="358.5769" class="st-efrMKwI4-2">Maps to</text></g><!--link getUser Function to UserDTO--><g id="link_getUser Function_UserDTO"><path d="M603.36,316.19 C591.82,316.19 583.75,316.19 583.75,316.19 C583.75,316.19 583.75,366.6 583.75,399.66 " id="getUser Function-to-UserDTO" style="stroke-width:1.0" class="st-efrMKwI4-0 st-efrMKwI4-1"/><polygon points="583.75,405.66,587.75,396.66,583.75,400.66,579.75,396.66,583.75,405.66" style="stroke-width:1.0" class="st-efrMKwI4-5 st-efrMKwI4-1"/><text font-family="sans-serif" font-size="13" lengthAdjust="spacing" textLength="49" x="533.75" y="347.1869" class="st-efrMKwI4-2">Returns</text></g><!--link createPost Function to PostDTO--><g id="link_createPost Function_PostDTO"><path d="M1152,331.16 C1152,366.45 1152,429.19 1152,429.19 C1152,429.19 871.35,429.19 752.09,429.19 " id="createPost Function-to-PostDTO" style="stroke-width:1.0" class="st-efrMKwI4-0 st-efrMKwI4-1"/><polygon points="746.09,429.19,755.09,433.19,751.09,429.19,755.09,425.19,746.09,429.19" style="stroke-width:1.0" class="st-efrMKwI4-5 st-efrMKwI4-1"/><text font-family="sans-serif" font-size="13" lengthAdjust="spacing" textLength="49" x="948.06" y="425.2569" class="st-efrMKwI4-2">Returns</text></g><!--link ApiClient to getUser Function--><g id="link_ApiClient_getUser Function"><path d="M1229.83,209.76 C1229.83,226.89 1229.83,247.19 1229.83,247.19 C1229.83,247.19 749.5,247.19 749.5,247.19 C749.5,247.19 749.5,261.16 749.5,278.16 " id="ApiClient-to-getUser Function" style="stroke-width:1.0" class="st-efrMKwI4-0 st-efrMKwI4-1"/><polygon points="749.5,284.16,753.5,275.16,749.5,279.16,745.5,275.16,749.5,284.16" style="stroke-width:1.0" class="st-efrMKwI4-5 st-efrMKwI4-1"/><text font-family="sans-serif" font-size="13" lengthAdjust="spacing" textLength="52" x="936.9" y="243.2569" class="st-efrMKwI4-2">Used by</text></g><!--link ApiClient to createPost Function--><g id="link_ApiClient_createPost Function"><path d="M1235.67,209.84 C1235.67,231.31 1235.67,256.97 1235.67,278.43 " id="ApiClient-to-createPost Function" style="stroke-width:1.0" class="st-efrMKwI4-0 st-efrMKwI4-1"/><polygon points="1235.67,284.43,1239.67,275.43,1235.67,279.43,1231.67,275.43,1235.67,284.43" style="stroke-width:1.0" class="st-efrMKwI4-5 st-efrMKwI4-1"/><text font-family="sans-serif" font-size="13" lengthAdjust="spacing" textLength="52" x="1182.67" y="243.1969" class="st-efrMKwI4-2">Used by</text></g><!--link Backend API to ApiClient--><g id="link_Backend API_ApiClient"><path d="M1313,88.54 C1313,110.02 1313,135.68 1313,157.13 " id="Backend API-to-ApiClient" style="stroke-width:1.0" class="st-efrMKwI4-0 st-efrMKwI4-1"/><polygon points="1313,163.13,1317,154.13,1313,158.13,1309,154.13,1313,163.13" style="stroke-width:1.0" class="st-efrMKwI4-5 st-efrMKwI4-1"/><text font-family="sans-serif" font-size="13" lengthAdjust="spacing" textLength="87" x="1225" y="121.9069" class="st-efrMKwI4-2">Provides data</text></g><!--link Third-party API to ApiClient--><g id="link_Third-party API_ApiClient"><path d="M1237.75,88.54 C1237.75,110.02 1237.75,135.68 1237.75,157.13 " id="Third-party API-to-ApiClient" style="stroke-width:1.0" class="st-efrMKwI4-0 st-efrMKwI4-1"/><polygon points="1237.75,163.13,1241.75,154.13,1237.75,158.13,1233.75,154.13,1237.75,163.13" style="stroke-width:1.0" class="st-efrMKwI4-5 st-efrMKwI4-1"/><text font-family="sans-serif" font-size="13" lengthAdjust="spacing" textLength="87" x="1149.75" y="138.9069" class="st-efrMKwI4-2">Provides data</text></g><!--link useQuery to getUser Function--><g id="link_useQuery_getUser Function"><path d="M683,209.84 C683,231.31 683,256.97 683,278.43 " id="useQuery-to-getUser Function" style="stroke-width:1.0" class="st-efrMKwI4-0 st-efrMKwI4-1"/><polygon points="683,284.43,687,275.43,683,279.43,679,275.43,683,284.43" style="stroke-width:1.0" class="st-efrMKwI4-5 st-efrMKwI4-1"/><text font-family="sans-serif" font-size="13" lengthAdjust="spacing" textLength="83" x="599" y="243.1969" class="st-efrMKwI4-2">Fetches data</text></g><!--link useMutation to createPost Function--><g id="link_useMutation_createPost Function"><path d="M1115.25,209.84 C1115.25,231.31 1115.25,256.97 1115.25,278.43 " id="useMutation-to-createPost Function" style="stroke-width:1.0" class="st-efrMKwI4-0 st-efrMKwI4-1"/><polygon points="1115.25,284.43,1119.25,275.43,1115.25,279.43,1111.25,275.43,1115.25,284.43" style="stroke-width:1.0" class="st-efrMKwI4-5 st-efrMKwI4-1"/><text font-family="sans-serif" font-size="13" lengthAdjust="spacing" textLength="87" x="1027.25" y="243.1969" class="st-efrMKwI4-2">Updates data</text></g><!--link UserProfile Component to useQuery--><g id="link_UserProfile Component_useQuery"><path d="M337.33,88.58 C337.33,110.27 337.33,139.19 337.33,139.19 C337.33,139.19 683,139.19 683,139.19 C683,139.19 683,145 683,156.82 " id="UserProfile Component-to-useQuery" style="stroke-width:1.0" class="st-efrMKwI4-0 st-efrMKwI4-1"/><polygon points="683,162.82,687,153.82,683,157.82,679,153.82,683,162.82" style="stroke-width:1.0" class="st-efrMKwI4-5 st-efrMKwI4-1"/><text font-family="sans-serif" font-size="13" lengthAdjust="spacing" textLength="32" x="463.67" y="135.2569" class="st-efrMKwI4-2">Uses</text></g><!--link UserProfile Component to useMutation--><g id="link_UserProfile Component_useMutation"><path d="M347.67,88.52 C347.67,101.15 347.67,114.19 347.67,114.19 C347.67,114.19 1077.25,114.19 1077.25,114.19 C1077.25,114.19 1077.25,136.06 1077.25,157.19 " id="UserProfile Component-to-useMutation" style="stroke-width:1.0" class="st-efrMKwI4-0 st-efrMKwI4-1"/><polygon points="1077.25,163.19,1081.25,154.19,1077.25,158.19,1073.25,154.19,1077.25,163.19" style="stroke-width:1.0" class="st-efrMKwI4-5 st-efrMKwI4-1"/><text font-family="sans-serif" font-size="13" lengthAdjust="spacing" textLength="32" x="691.12" y="110.2569" class="st-efrMKwI4-2">Uses</text></g><!--SRC=[ZPLBRnen4CVlV8fH3XL8aFRIImwL204HARGq8IUKW-ETNInsxQqVKRTLltl7Pjz0o74z3_z_y_2QlP0vqoo3L4YqHOwWjDsfWQaDKaLeC8UlNrg7cibzUJZGo2sJIOfmzNmF3wn03SD7PDp2J6MvaYYj6Lt1tm70zjcWNciL2tAlhIymcNo3hJFepR1KQly2Dq0VvWCnQsMiwGT9PH6qI7OML7mk1Va1B9cCKZIWKKQeXKo03eB5UJ52MjJ48fJqUSafv1xywu3VEaFrCmOUL29uLOIPCrPbGPhv_8JwJN2iAz6b3J3XUowji4MRlySONFt1iMkFkdD5G9fBpdBZKcQ9-BKIdNhHmKxe437B84RBTrICyyXtAcD2LgX1Yg2ad-1kywFJxbfcpKWUNlIAf81Ltg-3KmCU-PteQXLrZ1ST13PmGxnEhiSWp3JAX1oEnf2WNRWq_Suo78v6vrcdwtgm5xumi73oC18LA6KAQYh3CUqZMgV336svHb8Oc7l-BUh6lqTzT5LdZBrKhhBCIS6PDtVxQcbpJQnqnYvCzBsCDJDMEquoiA9_sZ6D4VHdUPgBMIgQhJokHXZH25wBK-udwz6Ew5MWYGzmjDXlWXufC0TrfbJNRlfoirdJYlzoI8lqJgVdlsdT9Kjz7PkTBJ5l6T_xEBALobiaDuqENsdllza97KtenRJ5HsDwfEqR0ywJSfgZjuLs-hx6PSbOIdjmdkpm8lzqg8lc1GgVxpGjJ7kBY49MphBMn9xhNHuTbl0aLdrpO5enoHBVFgestMyeFuw3XRFm28q3foaatsabnPzghjkab_uI9MdvL5xoRY3BWFy0]--></g></svg>